<?xml version="1.0" encoding="UTF-8"?>
<svg width="256px" height="256px" viewBox="0 0 256 256" version="1.1" xmlns="http://www.w3.org/2000/svg" xmlns:xlink="http://www.w3.org/1999/xlink">
    <!-- Generator: Sketch 43.2 (39069) - http://www.bohemiancoding.com/sketch -->
    <title>ignitiondeck-plugin-icon</title>
    <desc>Created with Sketch.</desc>
    <defs>
        <radialGradient cx="100%" cy="4.68441015%" fx="100%" fy="4.68441015%" r="224.389186%" gradientTransform="translate(1.000000,0.046844),scale(1.000000,0.584000),rotate(130.572683),scale(1.000000,0.398694),translate(-1.000000,-0.046844)" id="radialGradient-1">
            <stop stop-color="#27A381" offset="0%"></stop>
            <stop stop-color="#356BB9" offset="100%"></stop>
        </radialGradient>
    </defs>
    <g id="Page-1" stroke="none" stroke-width="1" fill="none" fill-rule="evenodd">
        <g id="ignitiondeck-plugin-icon" fill="url(#radialGradient-1)">
            <path d="M211.990021,-12.4303656 C215.628451,57.3143518 143.904738,169.661109 99.9450431,204.785828 L136.142755,195.981281 C181.781725,149.659274 229.305215,82.0455931 216.188209,-26.6372767 L216.561381,-27.272849 L216.076258,-27.5345553 L215.721744,-26.9176763 C114.66669,16.7311887 80.5400844,91.5230983 63.0569629,153.753107 L73.3378593,189.382545 C81.9767977,133.975592 143.680835,16.3760159 206.224509,-15.7016938 C142.412049,27.7041582 99.5718708,111.749253 87.0332821,176.315925 C90.8396394,178.764748 99.5532122,183.793247 104.479086,186.391616 C154.465514,143.30355 206.35512,64.1187145 211.990021,-12.4303656 Z M188.646773,21.7888658 C191.814896,23.6050255 192.895354,27.6450541 191.082382,30.8140674 C189.26941,33.9830807 185.222271,35.0579507 182.054148,33.241791 C178.886026,31.4256314 177.805568,27.3856027 179.61854,24.2351217 C181.431511,21.0661084 185.478651,19.9727061 188.646773,21.7888658 Z M174.187675,47.6868074 C179.674917,50.7829264 181.484944,57.8058304 178.207841,63.3939475 C174.930739,68.9820647 167.823998,71.0020935 162.336756,67.9059746 C156.849514,64.8098556 155.077592,57.7680728 158.335642,52.1988345 C161.612745,46.6107173 168.700433,44.5906885 174.187675,47.6868074 Z M49.0173086,219.693946 C58.1251257,208.935337 88.6531795,194.876427 88.6531795,194.876427 C88.6531795,194.876427 91.5391956,228.196417 86.6479605,241.416267 C85.6922019,231.925571 81.9628694,225.418197 81.9628694,225.418197 C81.9628694,225.418197 77.521403,251.242587 71.3183423,262.747027 C73.6046668,253.069873 69.8003728,240.894186 69.8003728,240.894186 C69.8003728,240.894186 58.706077,260.75193 38.1104165,281.85894 L37.7168688,281.635191 C45.9438888,253.368205 57.7877992,233.957959 57.7877992,233.957959 C57.7877992,233.957959 45.2879761,236.698887 37.9792339,243.467302 C44.9506495,232.410361 65.283945,215.79698 65.283945,215.79698 C65.283945,215.79698 57.7503184,215.815626 49.0173086,219.693946 Z" id="Combined-Shape" transform="translate(128.059813, 127.162193) rotate(16.000000) translate(-128.059813, -127.162193) "></path>
        </g>
    </g>
</svg>